<svg width="329" height="311" xmlns="http://www.w3.org/2000/svg" xmlns:xlink="http://www.w3.org/1999/xlink" overflow="hidden"><defs><clipPath id="clip0"><rect x="903" y="743" width="329" height="311"/></clipPath></defs><g clip-path="url(#clip0)" transform="translate(-903 -743)"><path d="M1155.37 1034.52 1174.86 1034.52 1174.86 1054 1155.37 1054ZM1078.45 1034.52 1097.95 1034.52 1097.95 1054 1078.45 1054ZM1039.46 1034.52 1058.96 1034.52 1058.96 1054 1039.46 1054ZM1000.47 1034.52 1019.97 1034.52 1019.97 1054 1000.47 1054ZM961.485 1034.52 980.979 1034.52 980.979 1054 961.485 1054ZM922.495 1034.52 941.99 1034.52 941.99 1054 922.495 1054ZM1212.51 1015.04 1232 1015.04 1232 1034.52 1212.51 1034.52ZM1097.95 1015.04 1117.44 1015.04 1117.44 1034.52 1097.95 1034.52ZM1058.96 1015.04 1078.45 1015.04 1078.45 1034.52 1058.96 1034.52ZM1019.97 1015.04 1039.46 1015.04 1039.46 1034.52 1019.97 1034.52ZM980.979 1015.04 1000.47 1015.04 1000.47 1034.52 980.979 1034.52ZM941.99 1015.04 961.485 1015.04 961.485 1034.52 941.99 1034.52ZM903 1015.04 922.495 1015.04 922.495 1034.52 903 1034.52ZM1078.45 995.564 1097.95 995.564 1097.95 1015.04 1078.45 1015.04ZM1039.46 995.564 1058.96 995.564 1058.96 1015.04 1039.46 1015.04ZM1000.47 995.564 1019.97 995.564 1019.97 1015.04 1000.47 1015.04ZM961.485 995.564 980.979 995.564 980.979 1015.04 961.485 1015.04ZM922.495 995.564 941.99 995.564 941.99 1015.04 922.495 1015.04ZM1212.51 976.085 1232 976.085 1232 995.564 1212.51 995.564ZM1175.06 976.085 1194.55 976.085 1194.55 995.564 1212.51 995.564 1212.51 1015.04 1194.36 1015.04 1194.36 1034.52 1212.51 1034.52 1212.51 1054 1193.01 1054 1193.01 1034.52 1174.86 1034.52 1174.86 1015.04 1193.01 1015.04 1193.01 995.564 1175.06 995.564ZM1136.56 976.085 1156.05 976.085 1156.05 995.564 1174.86 995.564 1174.86 1015.04 1155.37 1015.04 1155.37 995.564 1136.94 995.564 1136.94 1015.04 1155.37 1015.04 1155.37 1034.52 1136.94 1034.52 1136.94 1054 1117.44 1054 1117.44 1034.52 1135.87 1034.52 1135.87 1015.04 1117.44 1015.04 1117.44 995.564 1136.56 995.564ZM1097.95 976.085 1117.44 976.085 1117.44 995.564 1097.95 995.564ZM1058.96 976.085 1078.45 976.085 1078.45 995.564 1058.96 995.564ZM1019.97 976.085 1039.46 976.085 1039.46 995.564 1019.97 995.564ZM980.979 976.085 1000.47 976.085 1000.47 995.564 980.979 995.564ZM941.99 976.085 961.485 976.085 961.485 995.564 941.99 995.564ZM903 976.085 922.495 976.085 922.495 995.564 903 995.564ZM1155.37 955.564 1174.86 955.564 1174.86 975.043 1155.37 975.043ZM1078.45 955.564 1097.95 955.564 1097.95 975.043 1078.45 975.043ZM1039.46 955.564 1058.96 955.564 1058.96 975.043 1039.46 975.043ZM1000.47 955.564 1019.97 955.564 1019.97 975.043 1000.47 975.043ZM961.485 955.564 980.979 955.564 980.979 975.043 961.485 975.043ZM922.495 955.564 941.99 955.564 941.99 975.043 922.495 975.043ZM1212.51 936.086 1232 936.086 1232 955.564 1212.51 955.564ZM1097.95 936.086 1117.44 936.086 1117.44 955.564 1097.95 955.564ZM1058.96 936.086 1078.45 936.086 1078.45 955.564 1058.96 955.564ZM1019.97 936.086 1039.46 936.086 1039.46 955.564 1019.97 955.564ZM980.979 936.086 1000.47 936.086 1000.47 955.564 980.979 955.564ZM941.99 936.086 961.485 936.086 961.485 955.564 941.99 955.564ZM903 936.086 922.495 936.086 922.495 955.564 903 955.564ZM1078.45 916.607 1097.95 916.607 1097.95 936.086 1078.45 936.086ZM1039.46 916.607 1058.96 916.607 1058.96 936.086 1039.46 936.086ZM1000.47 916.607 1019.97 916.607 1019.97 936.086 1000.47 936.086ZM961.485 916.607 980.979 916.607 980.979 936.086 961.485 936.086ZM922.495 916.607 941.99 916.607 941.99 936.086 922.495 936.086ZM1212.51 859.021 1232 859.021 1232 878.5 1212.51 878.5ZM1097.95 859.021 1117.44 859.021 1117.44 878.5 1097.95 878.5ZM1058.96 859.021 1078.45 859.021 1078.45 878.5 1058.96 878.5ZM1019.97 859.021 1039.46 859.021 1039.46 878.5 1019.97 878.5ZM980.979 859.021 1000.47 859.021 1000.47 878.5 980.979 878.5ZM941.99 859.021 961.485 859.021 961.485 878.5 941.99 878.5ZM903 859.021 922.495 859.021 922.495 878.5 903 878.5ZM1078.45 839.543 1097.95 839.543 1097.95 859.021 1078.45 859.021ZM1039.46 839.543 1058.96 839.543 1058.96 859.021 1039.46 859.021ZM1000.47 839.543 1019.97 839.543 1019.97 859.021 1000.47 859.021ZM961.485 839.543 980.979 839.543 980.979 859.021 961.485 859.021ZM922.495 839.543 941.99 839.543 941.99 859.021 922.495 859.021ZM1212.51 781.957 1232 781.957 1232 801.436 1212.51 801.436ZM1097.95 781.957 1117.44 781.957 1117.44 801.436 1097.95 801.436ZM1058.96 781.957 1078.45 781.957 1078.45 801.436 1058.96 801.436ZM1019.97 781.957 1039.46 781.957 1039.46 801.436 1019.97 801.436ZM980.979 781.957 1000.47 781.957 1000.47 801.436 980.979 801.436ZM941.99 781.957 961.485 781.957 961.485 801.436 941.99 801.436ZM903 781.957 922.495 781.957 922.495 801.436 903 801.436ZM1078.45 762.478 1097.95 762.478 1097.95 781.957 1078.45 781.957ZM1039.46 762.478 1058.96 762.478 1058.96 781.957 1039.46 781.957ZM1000.47 762.478 1019.97 762.478 1019.97 781.957 1000.47 781.957ZM961.485 762.478 980.979 762.478 980.979 781.957 961.485 781.957ZM922.495 762.478 941.99 762.478 941.99 781.957 922.495 781.957ZM1212.51 743 1232 743 1232 762.478 1212.51 762.478ZM1175.06 743 1194.55 743 1194.55 762.478 1212.51 762.478 1212.51 781.957 1194.36 781.957 1194.36 801.436 1212.51 801.436 1212.51 820.064 1232 820.064 1232 839.543 1212.51 839.543 1212.51 820.914 1194.55 820.914 1194.55 839.543 1212.51 839.543 1212.51 859.021 1194.36 859.021 1194.36 878.5 1212.51 878.5 1212.51 897.128 1232 897.128 1232 916.607 1212.51 916.607 1212.51 897.979 1194.55 897.979 1194.55 916.607 1212.51 916.607 1212.51 936.086 1194.36 936.086 1194.36 955.564 1212.51 955.564 1212.51 975.043 1193.01 975.043 1193.01 955.564 1174.86 955.564 1174.86 936.086 1193.01 936.086 1193.01 916.607 1175.06 916.607 1175.06 897.128 1193.01 897.128 1193.01 878.5 1174.86 878.5 1174.86 859.021 1193.01 859.021 1193.01 839.543 1175.06 839.543 1175.06 820.064 1193.01 820.064 1193.01 801.436 1174.86 801.436 1174.86 781.957 1193.01 781.957 1193.01 762.478 1175.06 762.478ZM1136.56 743 1156.05 743 1156.05 762.478 1174.86 762.478 1174.86 781.957 1155.37 781.957 1155.37 762.478 1136.94 762.478 1136.94 781.957 1155.37 781.957 1155.37 801.436 1136.94 801.436 1136.94 820.064 1155.37 820.064 1155.37 801.436 1174.86 801.436 1174.86 820.914 1156.05 820.914 1156.05 839.543 1174.86 839.543 1174.86 859.021 1155.37 859.021 1155.37 839.543 1136.94 839.543 1136.94 859.021 1155.37 859.021 1155.37 878.5 1136.94 878.5 1136.94 897.128 1155.37 897.128 1155.37 878.5 1174.86 878.5 1174.86 897.979 1156.05 897.979 1156.05 916.607 1174.86 916.607 1174.86 936.086 1155.37 936.086 1155.37 916.607 1136.94 916.607 1136.94 936.086 1155.37 936.086 1155.37 955.564 1136.94 955.564 1136.94 975.043 1117.44 975.043 1117.44 955.564 1135.87 955.564 1135.87 936.086 1117.44 936.086 1117.44 916.607 1136.56 916.607 1136.56 897.979 1117.44 897.979 1117.44 916.607 1097.95 916.607 1097.95 897.979 1078.45 897.979 1078.45 916.607 1058.96 916.607 1058.96 897.979 1039.46 897.979 1039.46 916.607 1019.97 916.607 1019.97 897.979 1000.47 897.979 1000.47 916.607 980.979 916.607 980.979 897.979 961.485 897.979 961.485 916.607 941.99 916.607 941.99 897.979 922.495 897.979 922.495 916.607 903 916.607 903 897.128 922.495 897.128 922.495 878.5 941.99 878.5 941.99 897.128 961.485 897.128 961.485 878.5 980.979 878.5 980.979 897.128 1000.47 897.128 1000.47 878.5 1019.97 878.5 1019.97 897.128 1039.46 897.128 1039.46 878.5 1058.96 878.5 1058.96 897.128 1078.45 897.128 1078.45 878.5 1097.95 878.5 1097.95 897.128 1117.44 897.128 1117.44 878.5 1135.87 878.5 1135.87 859.021 1117.44 859.021 1117.44 839.543 1136.56 839.543 1136.56 820.914 1117.44 820.914 1117.44 839.543 1097.95 839.543 1097.95 820.914 1078.45 820.914 1078.45 839.543 1058.96 839.543 1058.96 820.914 1039.46 820.914 1039.46 839.543 1019.97 839.543 1019.97 820.914 1000.47 820.914 1000.47 839.543 980.979 839.543 980.979 820.914 961.485 820.914 961.485 839.543 941.99 839.543 941.99 820.914 922.495 820.914 922.495 839.543 903 839.543 903 820.064 922.495 820.064 922.495 801.436 941.99 801.436 941.99 820.064 961.485 820.064 961.485 801.436 980.979 801.436 980.979 820.064 1000.47 820.064 1000.47 801.436 1019.97 801.436 1019.97 820.064 1039.46 820.064 1039.46 801.436 1058.96 801.436 1058.96 820.064 1078.45 820.064 1078.45 801.436 1097.95 801.436 1097.95 820.064 1117.44 820.064 1117.44 801.436 1135.87 801.436 1135.87 781.957 1117.44 781.957 1117.44 762.478 1136.56 762.478ZM1097.95 743 1117.44 743 1117.44 762.478 1097.95 762.478ZM1058.96 743 1078.45 743 1078.45 762.478 1058.96 762.478ZM1019.97 743 1039.46 743 1039.46 762.478 1019.97 762.478ZM980.979 743 1000.47 743 1000.47 762.478 980.979 762.478ZM941.99 743 961.485 743 961.485 762.478 941.99 762.478ZM903 743 922.495 743 922.495 762.478 903 762.478Z" fill="#D9D9D9" fill-rule="evenodd"/><path d="M1011.5 875.5C1011.5 829.108 1048.88 791.5 1095 791.5 1141.12 791.5 1178.5 829.108 1178.5 875.5 1178.5 921.892 1141.12 959.5 1095 959.5 1048.88 959.5 1011.5 921.892 1011.5 875.5Z" stroke="#000000" stroke-width="6.875" stroke-miterlimit="8" stroke-dasharray="27.5 20.625" fill="#FF7F00" fill-rule="evenodd" fill-opacity="0.498039"/><rect x="958.5" y="861.5" width="152" height="152" stroke="#000000" stroke-width="6.875" stroke-miterlimit="8" stroke-dasharray="27.5 20.625" fill="#007FFF" fill-opacity="0.498039"/></g></svg>