<svg width="624" height="529" xmlns="http://www.w3.org/2000/svg" xmlns:xlink="http://www.w3.org/1999/xlink" overflow="hidden"><defs><clipPath id="clip0"><rect x="0" y="0" width="624" height="529"/></clipPath></defs><g clip-path="url(#clip0)"><rect x="0" y="0" width="624" height="528.551" fill="#FFFFFF"/><path d="M268.432 40.4996 486.472 476.209 462.608 488.131 244.568 52.4215ZM220.704 64.3434C210.819 44.5905 218.832 20.5712 238.602 10.6947 258.372 0.818253 282.411 8.8247 292.296 28.5776 302.181 48.3305 294.168 72.3499 274.398 82.2264 254.628 92.1028 230.589 84.0964 220.704 64.3434ZM510.336 464.287C520.221 484.04 512.208 508.059 492.438 517.936 472.668 527.812 448.628 519.806 438.743 500.053 428.859 480.3 436.872 456.28 456.642 446.404 476.411 436.527 500.451 444.534 510.336 464.287Z"/><path d="M5.94148-11.9317 101.395 35.6002 89.5118 59.4635-5.94148 11.9317ZM172.985 71.2491 268.438 118.781 256.555 142.644 161.102 95.1124ZM-17.8244 35.795C-37.5935 25.9508-45.6392 1.94458-35.795-17.8244-25.9508-37.5935-1.94458-45.6392 17.8244-35.795 37.5935-25.9508 45.6392-1.94458 35.795 17.8244 25.9508 37.5935 1.94458 45.6392-17.8244 35.795Z" transform="matrix(1.00085 0 0 -1 40.5 372.325)"/><path d="M5.92708-11.9388 101.438 35.4778 89.5835 59.3554-5.92708 11.9388ZM173.071 71.0402 180.458 74.7079 168.604 98.5855 161.216 94.9179ZM-17.7812 35.8165C-37.5621 25.9962-45.6368 1.99967-35.8165-17.7812-25.9962-37.5621-1.99967-45.6368 17.7812-35.8165 37.5621-25.9962 45.6368-1.99967 35.8165 17.7812 25.9962 37.5621 1.99967 45.6368-17.7812 35.8165Z" transform="matrix(-1.00085 0 0 1 583.18 264.275)"/></g></svg>