<svg width="945" height="454" xmlns="http://www.w3.org/2000/svg" xmlns:xlink="http://www.w3.org/1999/xlink" overflow="hidden"><defs><clipPath id="clip0"><rect x="0" y="0" width="945" height="454"/></clipPath></defs><g clip-path="url(#clip0)"><rect x="0" y="0" width="945" height="454.42" fill="#FFFFFF"/><path d="M219.578 24.2332 420.757 426.963 413.6 430.544 212.422 27.8149ZM205.265 31.3965C202.301 25.4622 204.704 18.2462 210.632 15.2791 216.561 12.3119 223.771 14.7173 226.735 20.6516 229.699 26.5858 227.296 33.8019 221.367 36.769 215.439 39.7361 208.229 37.3308 205.265 31.3965ZM427.913 423.381C430.878 429.315 428.475 436.531 422.546 439.498 416.617 442.465 409.408 440.06 406.443 434.126 403.479 428.192 405.882 420.976 411.811 418.008 417.74 415.041 424.949 417.447 427.913 423.381Z"/><path d="M1.78332-3.58126 30.4334 10.6853 26.8667 17.8478-1.78332 3.58126ZM51.9209 21.3852 80.571 35.6518 77.0044 42.8143 48.3543 28.5477ZM102.059 46.3517 130.709 60.6183 127.142 67.7808 98.4919 53.5142ZM152.196 71.3182 180.846 85.5848 177.28 92.7473 148.63 78.4807ZM202.334 96.2847 230.984 110.551 227.417 117.714 198.767 103.447ZM252.471 121.251 281.121 135.518 277.555 142.68 248.905 128.414ZM-5.34996 10.7438C-11.2836 7.78908-13.6985 0.58367-10.7438-5.34996-7.78908-11.2836-0.58367-13.6985 5.34996-10.7438 11.2836-7.78908 13.6985-0.58367 10.7438 5.34996 7.78908 11.2836 0.58367 13.6985-5.34996 10.7438Z" transform="matrix(1 0 0 -1.00093 17 326.755)"/><path d="M1.779-3.58341 30.4463 10.6486 26.8883 17.8154-1.779 3.58341ZM51.9467 21.3225 80.614 35.5545 77.056 42.7213 48.3887 28.4894ZM102.114 46.2285 130.782 60.4605 127.224 67.6273 98.5564 53.3953ZM152.282 71.1345 162.95 76.4307 159.392 83.5975 148.724 78.3013ZM-5.33699 10.7502C-11.2742 7.80269-13.6978 0.600197-10.7502-5.33699-7.80269-11.2742-0.600197-13.6978 5.33699-10.7502 11.2742-7.80269 13.6978-0.600197 10.7502 5.33699 7.80269 11.2742 0.600197 13.6978-5.33699 10.7502Z" transform="matrix(-1 0 0 1.00093 517.171 227.21)"/><path d="M46.4661 0C38.135 1.66302 29.8041 4.45871 26.7534 24.6407 23.7026 44.8228 32.6202 101.732 28.1613 121.092 23.7024 140.453-0.0965495 138.82 0.00033877 140.805 0.097227 142.789 21.5903 140.922 26.0492 162.63 30.5081 184.337 22.2945 248.169 26.7534 271.049 31.2122 293.93 46.5834 299.328 52.8022 299.915" stroke="#000000" stroke-width="4.0015" stroke-miterlimit="8" fill="none" fill-rule="evenodd" transform="matrix(-0.88641 0.462901 0.462472 0.887231 267.065 6.85572)"/><path d="M209.328 35.0113C205.575 37.8718 202.098 41.2979 205.488 52.1225 208.878 62.947 227.18 89.2014 229.668 99.9587 232.155 110.716 219.88 115.699 220.412 116.666 220.943 117.634 231.215 111.465 238.724 121.222 246.233 130.979 257.671 164.865 265.465 175.208 273.26 185.551 282.245 184.502 285.491 183.28" stroke="#000000" stroke-width="4.00142" stroke-miterlimit="8" fill="none" fill-rule="evenodd"/><path d="M297.102 187.969 307.459 209.224 286.224 219.59 275.867 198.335Z" stroke="#000000" stroke-width="2.00185" stroke-miterlimit="8" fill="none" fill-rule="evenodd"/><path d="M378.769 297.679 389.126 318.934 367.891 329.3 357.534 308.045Z" stroke="#000000" stroke-width="2.00185" stroke-miterlimit="8" fill="none" fill-rule="evenodd"/><path d="M46.4661 0C38.1351 1.66302 29.8042 4.45872 26.7534 24.6408 23.7026 44.8228 32.6202 101.732 28.1613 121.093 23.7024 140.453-0.0965496 138.821 0.000338771 140.805 0.0972272 142.79 21.5904 140.922 26.0493 162.63 30.5082 184.337 22.2945 248.169 26.7534 271.05 31.2123 293.931 46.5835 299.328 52.8023 299.915" stroke="#000000" stroke-width="4.0015" stroke-miterlimit="8" fill="none" fill-rule="evenodd" transform="matrix(-0.464601 -0.886114 -0.885294 0.465032 313.17 239.28)"/><path d="M367.505 310.088C370.486 313.974 374.053 317.572 385.262 314.006 396.471 310.441 423.616 291.323 434.759 288.695 445.902 286.067 451.118 298.797 452.119 298.241 453.12 297.685 446.682 287.041 456.768 279.201 466.853 271.361 501.939 259.342 512.631 251.203 523.323 243.065 522.198 233.736 520.918 230.369" stroke="#000000" stroke-width="4.00369" stroke-miterlimit="8" fill="none" fill-rule="evenodd"/><text font-family="Arial,Arial_MSFontService,sans-serif" font-weight="700" font-size="47" transform="matrix(1 0 0 1.00093 152.841 143)">D<tspan font-size="31" x="33.6726" y="10.9898">A1</tspan><tspan font-size="47" x="186.814" y="-9.99075">D</tspan><tspan font-size="31" x="220.487" y="0.999075">A2</tspan><tspan font-size="47" x="9.327" y="203.811">D</tspan><tspan font-size="31" x="42.9996" y="214.801">N1</tspan><tspan font-size="47" x="274.228" y="197.817">D</tspan><tspan font-size="31" x="307.901" y="208.807">N2</tspan><tspan font-size="47" x="303.383" y="-101.906">D</tspan><tspan font-size="31" x="337.056" y="-90.9158">A#</tspan><tspan font-size="47" x="303.383" y="9.99075">D</tspan><tspan font-size="31" x="337.056" y="20.9806">N#</tspan><tspan font-size="47" x="385.394" y="-102.905">= Distance along</tspan><tspan font-size="47" x="424.401" y="-46.9565">transect</tspan><tspan font-size="47" x="385.394" y="8.99167">= Distance normal</tspan><tspan font-size="47" x="424.401" y="64.9399">to transect</tspan><tspan font-size="47" x="-116.389" y="-102.905">START</tspan><tspan font-size="47" x="286.705" y="302.72">END</tspan></text></g></svg>